<svg xmlns="http://www.w3.org/2000/svg" width="256" height="256" fill="none" xmlns:v="https://vecta.io/nano"><path d="M46.153 166.409h43.833c.517 8.275 3.75 14.869 9.698 19.783s13.964 7.37 24.05 7.37c10.344 0 18.619-2.198 24.825-6.595 6.465-4.396 9.698-10.085 9.698-17.067 0-5.431-1.423-9.698-4.267-12.801s-7.758-5.818-14.74-8.146l-32.972-10.861c-13.188-4.396-23.532-10.603-31.032-18.619-7.241-8.275-10.861-18.749-10.861-31.42 0-18.619 6.853-33.359 20.559-44.22 13.706-11.12 32.325-16.68 55.857-16.68 13.965 0 26.119 2.586 36.463 7.758s18.36 12.413 24.05 21.722c5.689 9.051 8.533 19.654 8.533 31.808h-43.444c-.259-8.534-2.974-15.128-8.146-19.783-4.914-4.913-11.896-7.37-20.947-7.37-9.309 0-16.55 1.94-21.722 5.819s-7.758 9.31-7.758 16.292c0 10.603 7.241 18.361 21.722 23.274l32.196 10.474c13.706 4.654 23.791 10.861 30.256 18.619 6.724 7.758 10.085 17.584 10.085 29.48 0 12.671-3.361 23.791-10.085 33.359-6.465 9.568-15.775 16.939-27.929 22.111-12.154 4.913-26.636 7.37-43.444 7.37-22.24 0-40.213-5.56-53.918-16.68-13.706-11.378-20.559-26.377-20.559-44.996z" fill="#fff"/><path d="M37.232 88.054c0-26.293 10.171-49.119 30.846-65.503C87.986 6.511 113.233 0 140.802 0c17.315 0 33.787 3.217 48.605 10.626 14.506 7.254 26.395 17.787 34.888 31.558h.007C233.07 56.133 237 71.892 237 88.44v.553c0 14.691-11.909 26.6-26.6 26.6a68.83 68.83 0 0 1 2.118 2.387c11.67 13.465 16.724 29.934 16.724 47.263 0 17.602-4.731 34.13-14.743 48.56-9.8 14.503-23.535 24.977-39.794 31.895l-.227.099-.227.091c-16.159 6.532-34.266 9.349-53.621 9.349-26.812 0-51.336-6.773-71.026-22.748l-.117-.094-.117-.099C29.134 215.497 19 192.685 19 166.41c0-14.996 12.157-27.153 27.153-27.153h10.463l-1.201-1.235-.307-.329-.295-.341c-12.225-13.971-17.58-31.115-17.58-49.298zm27.195 2.349c.424 11.622 4.031 21.313 10.819 29.071 7.499 8.016 17.843 14.223 31.032 18.619l32.972 10.861c6.982 2.328 11.895 5.043 14.74 8.146s4.267 7.37 4.267 12.801l-.037 1.295c-.379 6.393-3.6 11.651-9.661 15.772l-1.188.8c-6.061 3.864-13.94 5.795-23.637 5.795l-1.868-.029c-9.212-.288-16.606-2.735-22.182-7.341-5.948-4.914-9.18-11.508-9.698-19.783H46.153c0 18.619 6.853 33.618 20.559 44.996 13.278 10.772 30.56 16.327 51.846 16.664l2.072.016c15.758 0 29.472-2.16 41.139-6.479l2.305-.891c12.154-5.172 21.464-12.543 27.929-22.111 6.303-8.97 9.65-19.303 10.044-31.001l.041-2.358c0-11.896-3.361-21.722-10.085-29.48-6.061-7.273-15.305-13.183-27.73-17.729l-2.526-.89-32.196-10.474c-14.481-4.913-21.722-12.671-21.722-23.274 0-6.982 2.586-12.413 7.758-16.292s12.413-5.818 21.722-5.818c9.051 0 16.033 2.457 20.947 7.37l.941.895c4.561 4.591 6.962 10.888 7.205 18.888h43.444c0-12.154-2.844-22.757-8.533-31.808-5.69-9.31-13.706-16.55-24.05-21.722-9.698-4.849-20.987-7.425-33.866-7.728l-2.597-.03c-23.532 0-42.151 5.56-55.857 16.68-13.706 10.861-20.559 25.601-20.559 44.221l.042 2.349z" fill="#fd4a5c"/></svg>