<svg xmlns="http://www.w3.org/2000/svg" xmlns:xlink="http://www.w3.org/1999/xlink" viewBox="237.05 150.5 75.8 99.9"><use xlink:href="#a" width="72.8" height="96.9" data-characterid="1" transform="translate(238.55 152)"/><defs><g id="a"><path fill="#f8f9e6" fill-rule="evenodd" d="M7.45 66.25Q5.4 59.65 5.1 52.1l-.05-2.9Q5 38.8 12.2 24.8q1.75-3.45 3.75-6.2 5.1-7.05 9.4-10.1 5.1-3.8 11.25-3.75l3 .25q8.15 12.35 12.9 23.15Q67 61.1 49.55 79.3 26.4 81.5 7.45 66.25"/><path fill="#eadfb3" fill-rule="evenodd" d="M30.1 91.65q-9-2.45-15.85-11.85-4.5-6.15-6.8-13.55Q26.4 81.5 49.55 79.3q-7.1 7.4-19.45 12.35"/><path fill="#e8fffe" fill-rule="evenodd" d="m30.1 91.65 6.5.85q13.05-.05 22.3-12.7t9.25-30.6q0-10.4-7.15-24.4-1.65-3.2-3.8-6.2-2.5-3.4-4.7-5.85-2.45-2.65-4.65-4.25Q44 5.65 39.6 5l-3-.25Q30.45 4.7 25.35 8.5q-4.3 3.05-9.4 10.1-2 2.75-3.75 6.2-7.2 14-7.15 24.4l.05 2.9q.3 7.55 2.35 14.15 2.3 7.4 6.8 13.55 6.85 9.4 15.85 11.85M53.35 8.1q3.05 3.05 6.45 7.55 2.5 3.3 4.35 6.8 8.15 15.3 8.15 26.65 0 19.6-10.55 33.45Q51.25 96.4 36.4 96.4q-14.9 0-25.4-13.85Q1.45 70 .6 52.65l-.05-.55v-1.2L.5 49.1q0-11.35 8.15-26.65 2-3.75 4.3-6.8 5.8-7.65 10.65-11Q29.45.5 36.4.5t12.85 4.15L51.8 6.7l.35.3.35.3.25.25z"/><path fill="none" stroke="#047b75" stroke-linecap="round" stroke-linejoin="round" d="M53.35 8.1q3.05 3.05 6.45 7.55 2.5 3.3 4.35 6.8 8.15 15.3 8.15 26.65 0 19.6-10.55 33.45Q51.25 96.4 36.4 96.4q-14.9 0-25.4-13.85Q1.45 70 .6 52.65M.55 50.9.5 49.1q0-11.35 8.15-26.65 2-3.75 4.3-6.8 5.8-7.65 10.65-11Q29.45.5 36.4.5t12.85 4.15L51.8 6.7"/><path fill="#959493" fill-rule="evenodd" d="M15.35 74.5q1.6 1.95 3.35 3.5 9.95 8.6 18.25 7.95 8.25-.65 11.55-3.55l1.05-1.15Q59 82.4 64 72.9q2.7-4.25 5.1-5.1-7.8 20.1-20.3 25.75l-.55.1q-14.9 2.3-21.65-4.7-9.35-13.15-19.3-12.2l-1-2.05q1.75-1.5 4-1.95 3.05-.7 5.05 1.75m27.5-32.55q-6.25-4.7-6.4-8.25-.05-1.5 1.2-1.85 1.35-.35 3.55.75 5.85 2.55 12.7.65l.85 1.7q3.1 5.3 7.1 8.65Q64 45.4 66 46.15q-13.95 2.3-23.15-4.2"/><path fill="#d9fffe" fill-opacity=".4" fill-rule="evenodd" d="M50.75 41.7q6.3 8.75 6.3 21.1 0 12.3-6.3 21.1-6.3 8.75-15.15 8.75T20.45 83.9q-6.3-8.8-6.3-21.1 0-12.35 6.3-21.1t15.15-8.75 15.15 8.75m-2.45 3.85q-4.75-6.65-11.5-6.6-6.8-.05-11.7 6.6-4.75 6.8-4.75 16.25 0 9.4 4.75 16.1 4.9 6.8 11.7 6.8 6.75 0 11.5-6.8 4.9-6.7 4.95-16.1-.05-9.45-4.95-16.25"/><path fill="#e8fffe" fill-rule="evenodd" d="M48.3 45.55q4.9 6.8 4.95 16.25-.05 9.4-4.95 16.1-4.75 6.8-11.5 6.8-6.8 0-11.7-6.8-4.75-6.7-4.75-16.1 0-9.45 4.75-16.25 4.9-6.65 11.7-6.6 6.75-.05 11.5 6.6"/><path fill="#059e97" fill-rule="evenodd" d="M35.8 91.85q-7.35-.1-12.25-2.25t-4.9-2.9l5.15.25L36.2 88l12.5-1 5.15-.3q0 .75-5.35 3t-12.7 2.15"/><path fill="#fdfdfb" fill-rule="evenodd" d="M57.75 50.5q0 2.5-1.8 4.25-1.75 1.75-4.2 1.8-2.5-.05-4.3-1.8Q45.7 53 45.7 50.5q0-2.45 1.75-4.25 1.8-1.75 4.3-1.75 2.45 0 4.2 1.75 1.8 1.8 1.8 4.25"/><path fill="#fff" fill-opacity=".4" fill-rule="evenodd" d="M59.15 50.8q0 3.2-2.3 5.5t-5.55 2.35q-3.25-.05-5.55-2.35t-2.3-5.5q0-3.25 2.3-5.55 2.3-2.35 5.55-2.3 3.25-.05 5.55 2.3 2.3 2.3 2.3 5.55m-1.4-.3q0-2.45-1.8-4.25-1.75-1.75-4.2-1.75-2.5 0-4.3 1.75-1.75 1.8-1.75 4.25 0 2.5 1.75 4.25 1.8 1.75 4.3 1.8 2.45-.05 4.2-1.8 1.8-1.75 1.8-4.25"/><path fill="#2c2b29" fill-rule="evenodd" d="M63.2 54q2.3 2.3 2.35 5.5-.05 3.2-2.35 5.5t-3.55.35-4.95-2.8q-3.75-.85-4.25-3.55t1.75-5q2.3-2.3 5.5-2.3t5.5 2.3"/><path fill="#e4dfd3" fill-opacity=".6" fill-rule="evenodd" d="M22.45 50.05q0-1.6 1.15-2.8 1.15-1.15 2.8-1.15t2.8 1.15q1.15 1.2 1.15 2.8 0 1.65-1.15 2.8T26.4 54t-2.8-1.15-1.15-2.8m1.15-.1q-.05 1.25.85 2.1.9.9 2.15.9t2.15-.9q.9-.85.9-2.1t-.9-2.15-2.15-.9-2.15.9-.85 2.15"/><path fill="#fdfff0" fill-rule="evenodd" d="M23.6 49.95q-.05-1.25.85-2.15t2.15-.9 2.15.9.9 2.15-.9 2.1q-.9.9-2.15.9t-2.15-.9q-.9-.85-.85-2.1"/><path fill="#fdfdfb" fill-rule="evenodd" d="M32.05 81q0 2.5-1.8 4.25-1.75 1.75-4.2 1.8-2.5-.05-4.3-1.8Q20 83.5 20 81q0-2.45 1.75-4.25 1.8-1.75 4.3-1.75 2.45 0 4.2 1.75 1.8 1.8 1.8 4.25"/><path fill="#fff" fill-opacity=".4" fill-rule="evenodd" d="M32.05 81q0-2.45-1.8-4.25Q28.5 75 26.05 75q-2.5 0-4.3 1.75Q20 78.55 20 81q0 2.5 1.75 4.25 1.8 1.75 4.3 1.8 2.45-.05 4.2-1.8 1.8-1.75 1.8-4.25m1.4.3q0 3.2-2.3 5.5t-5.55 2.35q-3.25-.05-5.55-2.35t-2.3-5.5q0-3.25 2.3-5.55 2.3-2.35 5.55-2.3 3.25-.05 5.55 2.3 2.3 2.3 2.3 5.55"/><path fill="#59f2ff" fill-opacity=".502" fill-rule="evenodd" d="M36.05 27.05q1.9 1.9 1.9 4.5t-1.9 4.5q-1.85 1.9-4.45 1.9-2.65 0-4.55-1.9-1.85-1.9-1.85-4.5t1.85-4.5q1.9-1.9 4.55-1.85 2.6-.05 4.45 1.85m-.7 1.05q-1.5-1.45-3.55-1.45t-3.55 1.45q-1.45 1.5-1.45 3.55t1.45 3.55q1.5 1.45 3.55 1.45t3.55-1.45q1.45-1.5 1.45-3.55t-1.45-3.55"/><path fill="#5ffaf2" fill-rule="evenodd" d="M35.35 28.1q1.45 1.5 1.45 3.55t-1.45 3.55q-1.5 1.45-3.55 1.45t-3.55-1.45q-1.45-1.5-1.45-3.55t1.45-3.55q1.5-1.45 3.55-1.45t3.55 1.45"/><path fill="#59f2ff" fill-rule="evenodd" d="M25.65 60.7q0-2.65 1.95-4.6t4.65-1.95 4.6 1.95q2 1.95 2 4.6 0 2.75-2 4.65-1.9 1.95-4.6 1.95t-4.65-1.95q-1.95-1.9-1.95-4.65"/><path fill="#59f2ff" fill-opacity=".502" fill-rule="evenodd" d="M23.55 60.6q0-3.45 2.45-5.95 2.5-2.45 5.95-2.45t5.95 2.45q2.45 2.5 2.45 5.95t-2.45 5.95Q35.4 69 31.95 69T26 66.55q-2.45-2.5-2.45-5.95m2.1.1q0 2.75 1.95 4.65 1.95 1.95 4.65 1.95t4.6-1.95q2-1.9 2-4.65 0-2.65-2-4.6-1.9-1.95-4.6-1.95T27.6 56.1t-1.95 4.6"/><path fill="#262320" fill-rule="evenodd" d="M65.2 22.9q6.2 12.15 6.8 22.9-1.35.6-2.7.75l-3.3-.4q-2-.75-4.15-2.55-4-3.35-7.1-8.65l-.85-1.7q-1.6-4.15 2.05-7 3.9-3 9.25-3.35M27.1 6l-.05.05q-1.25 3.3-3.4 6.65-1 1.55-2.15 2.4l-.7.5q-2.4 1.35-5.45-.1l-1.85-1.05Q21.05 5.1 28.2 2.4v.05zm.5 21.75q1.5-1.5 3.6-1.5t3.15 1.55q1 1.55.25 4.7l-1.1 3.9q-.4.7-2.8 1.7t-3.5-1.8q-1.1-2.85-1.1-4.95t1.5-3.6m-9.3 19.4 3.1-2.9q4.55-3.55 9.85-.95 3.3 1.6 1 7.25t.4 12.5l1 2.35q-8.8-5.85-15.35-18.25"/><path fill="#393531" fill-rule="evenodd" d="M33.65 65.4q1.85 3.8 3.95 5.25l1.05.55q3.3 1.25 7.25-.55 8.1-4.3 5.15 5.65-.25 3.05-1.5 4.95L48.5 82.4q-3.3 2.9-11.55 3.55-8.3.65-18.25-7.95-5.4-6.15-6.95-19.8l.45-.7q2.05-6 6.1-10.35 6.55 12.4 15.35 18.25"/><path fill="#504a45" fill-rule="evenodd" d="M18.7 78q-1.75-1.55-3.35-3.5-2-2.45-5.05-1.75-2.25.45-4 1.95l-.35.25-.45-1.1q-1.3-2.9-2.25-6l-.5-1.75q5.1-2.25 8.3-6.9l.7-1Q13.3 71.85 18.7 78"/><path fill="#959493" fill-rule="evenodd" d="M21.5 15.1q1.15-.85 2.15-2.4 2.15-3.35 3.4-6.65L27.1 6q6.3 5.8 12.1 3.3l.1-.05.65-.15q6.35-1.2 2.45 3.8-8.9 7.75-20.9 2.2"/><path fill="#fff" fill-opacity=".753" fill-rule="evenodd" d="M23.8 28.95Q14 35.55 12.45 44.5q-1.6 8.9-3.95 9.45-2.45.6-3.1-6.15-.7-6.65 1.9-15.1 2.55-8.5 6.95-13.85 4.25-5.3 10.1-6.55 5.8-1.25 7.55 4.4 1.7 5.65-8.1 12.25m10.85-.65q0 1.05.7 1.75.75.75 1.8.75 1 0 1.7-.75.75-.7.75-1.75 0-1-.75-1.75-.7-.7-1.7-.7-1.05 0-1.8.7-.7.75-.7 1.75m4.6-2.15q.95.95.95 2.3 0 1.3-.95 2.25t-2.3 1q-1.35-.05-2.3-1t-.95-2.25q0-1.35.95-2.3t2.3-.95 2.3.95"/><path fill="#fdfdfb" fill-rule="evenodd" d="M34.65 28.3q0-1 .7-1.75.75-.7 1.8-.7 1 0 1.7.7.75.75.75 1.75 0 1.05-.75 1.75-.7.75-1.7.75-1.05 0-1.8-.75-.7-.7-.7-1.75"/><path fill="#2c2b29" fill-rule="evenodd" d="M18.35 37.2q.65-.65 1.6-.65t1.6.65q.65.7.65 1.6 0 .95-.65 1.6t-1.6.65-1.6-.65-.65-1.6q0-.9.65-1.6"/><path fill="#4d4b48" fill-rule="evenodd" d="M53.15 15.9q.45.35-1.45 1.85-1.95 1.5-3.95-.35-2.05-1.9-4.3-3-2.3-1.1-.6-2.7 1.65-1.6 3.45-1.35 1.75.25 2.15-.65t2.3 2.5q1.9 3.35 2.4 3.7"/><path fill="#59f2ff" fill-opacity=".502" fill-rule="evenodd" d="M36.4 11.25q-.9-.85-2.1-.85-1.25 0-2.15.85-.85.9-.85 2.1 0 1.25.85 2.15.9.85 2.15.85 1.2 0 2.1-.85.85-.9.85-2.15 0-1.2-.85-2.1m.4-.65q1.15 1.15 1.15 2.7T36.8 16q-1.1 1.1-2.65 1.1t-2.7-1.1q-1.1-1.15-1.1-2.7t1.1-2.7q1.15-1.1 2.7-1.1t2.65 1.1"/><path fill="#5ffaf2" fill-rule="evenodd" d="M36.4 11.25q.85.9.85 2.1 0 1.25-.85 2.15-.9.85-2.1.85-1.25 0-2.15-.85-.85-.9-.85-2.15 0-1.2.85-2.1.9-.85 2.15-.85 1.2 0 2.1.85"/></g></defs></svg>