<svg width="543" height="163" viewBox="0 0 543 163" fill="none" xmlns="http://www.w3.org/2000/svg">
  <style>
    .text {
      fill: black;
    }
    @media (prefers-color-scheme: dark) {
      .text {
        fill: white;
      }
    }
  </style>
  <path d="M45.2543 163L0 68.955L40.1808 68.7358C38.5234 45.8145 36.8668 22.9128 35.2111 0.0305821L35.2941 0L75 94.1062H37.1652C39.9057 117.141 42.6349 140.097 45.3529 162.975L45.2543 163Z" fill="#E74C3C" shape-rendering="geometricPrecision"/>
  <path class="text" d="M134.318 79.7273V110H119.795V57.6364H133.636V66.875H134.25C135.409 63.8295 137.352 61.4205 140.08 59.6477C142.807 57.8523 146.114 56.9545 150 56.9545C153.636 56.9545 156.807 57.75 159.511 59.3409C162.216 60.9318 164.318 63.2045 165.818 66.1591C167.318 69.0909 168.068 72.5909 168.068 76.6591V110H153.545V79.25C153.568 76.0455 152.75 73.5455 151.091 71.75C149.432 69.9318 147.148 69.0227 144.239 69.0227C142.284 69.0227 140.557 69.4432 139.057 70.2841C137.58 71.125 136.42 72.3523 135.58 73.9659C134.761 75.5568 134.341 77.4773 134.318 79.7273ZM179.514 110V57.6364H194.037V110H179.514ZM186.81 50.8864C184.651 50.8864 182.798 50.1705 181.253 48.7386C179.73 47.2841 178.969 45.5455 178.969 43.5227C178.969 41.5227 179.73 39.8068 181.253 38.375C182.798 36.9205 184.651 36.1932 186.81 36.1932C188.969 36.1932 190.81 36.9205 192.332 38.375C193.878 39.8068 194.651 41.5227 194.651 43.5227C194.651 45.5455 193.878 47.2841 192.332 48.7386C190.81 50.1705 188.969 50.8864 186.81 50.8864ZM233.523 57.6364V68.5455H201.989V57.6364H233.523ZM209.148 45.0909H223.67V93.9091C223.67 95.25 223.875 96.2955 224.284 97.0455C224.693 97.7727 225.261 98.2841 225.989 98.5795C226.739 98.875 227.602 99.0227 228.58 99.0227C229.261 99.0227 229.943 98.9659 230.625 98.8523C231.307 98.7159 231.83 98.6136 232.193 98.5455L234.477 109.352C233.75 109.58 232.727 109.841 231.409 110.136C230.091 110.455 228.489 110.648 226.602 110.716C223.102 110.852 220.034 110.386 217.398 109.318C214.784 108.25 212.75 106.591 211.295 104.341C209.841 102.091 209.125 99.25 209.148 95.8182V45.0909ZM242.983 110V57.6364H257.062V66.7727H257.608C258.563 63.5227 260.165 61.0682 262.415 59.4091C264.665 57.7273 267.256 56.8864 270.188 56.8864C270.915 56.8864 271.699 56.9318 272.54 57.0227C273.381 57.1136 274.119 57.2386 274.756 57.3977V70.2841C274.074 70.0795 273.131 69.8977 271.926 69.7386C270.722 69.5795 269.619 69.5 268.619 69.5C266.483 69.5 264.574 69.9659 262.892 70.8977C261.233 71.8068 259.915 73.0795 258.938 74.7159C257.983 76.3523 257.506 78.2386 257.506 80.375V110H242.983ZM303.486 111.023C298.19 111.023 293.611 109.898 289.747 107.648C285.906 105.375 282.94 102.216 280.849 98.1705C278.759 94.1023 277.713 89.3864 277.713 84.0227C277.713 78.6136 278.759 73.8864 280.849 69.8409C282.94 65.7727 285.906 62.6136 289.747 60.3636C293.611 58.0909 298.19 56.9545 303.486 56.9545C308.781 56.9545 313.349 58.0909 317.19 60.3636C321.054 62.6136 324.031 65.7727 326.122 69.8409C328.213 73.8864 329.259 78.6136 329.259 84.0227C329.259 89.3864 328.213 94.1023 326.122 98.1705C324.031 102.216 321.054 105.375 317.19 107.648C313.349 109.898 308.781 111.023 303.486 111.023ZM303.554 99.7727C305.963 99.7727 307.974 99.0909 309.588 97.7273C311.202 96.3409 312.418 94.4545 313.236 92.0682C314.077 89.6818 314.497 86.9659 314.497 83.9205C314.497 80.875 314.077 78.1591 313.236 75.7727C312.418 73.3864 311.202 71.5 309.588 70.1136C307.974 68.7273 305.963 68.0341 303.554 68.0341C301.122 68.0341 299.077 68.7273 297.418 70.1136C295.781 71.5 294.543 73.3864 293.702 75.7727C292.884 78.1591 292.474 80.875 292.474 83.9205C292.474 86.9659 292.884 89.6818 293.702 92.0682C294.543 94.4545 295.781 96.3409 297.418 97.7273C299.077 99.0909 301.122 99.7727 303.554 99.7727ZM382.27 72.5682L368.974 73.3864C368.747 72.25 368.259 71.2273 367.509 70.3182C366.759 69.3864 365.77 68.6477 364.543 68.1023C363.338 67.5341 361.895 67.25 360.213 67.25C357.963 67.25 356.065 67.7273 354.52 68.6818C352.974 69.6136 352.202 70.8636 352.202 72.4318C352.202 73.6818 352.702 74.7386 353.702 75.6023C354.702 76.4659 356.418 77.1591 358.849 77.6818L368.327 79.5909C373.418 80.6364 377.213 82.3182 379.713 84.6364C382.213 86.9545 383.463 90 383.463 93.7727C383.463 97.2045 382.452 100.216 380.429 102.807C378.429 105.398 375.679 107.42 372.179 108.875C368.702 110.307 364.69 111.023 360.145 111.023C353.213 111.023 347.69 109.58 343.577 106.693C339.486 103.784 337.088 99.8295 336.384 94.8295L350.668 94.0795C351.099 96.1932 352.145 97.8068 353.804 98.9205C355.463 100.011 357.588 100.557 360.179 100.557C362.724 100.557 364.77 100.068 366.315 99.0909C367.884 98.0909 368.679 96.8068 368.702 95.2386C368.679 93.9205 368.122 92.8409 367.031 92C365.94 91.1364 364.259 90.4773 361.986 90.0227L352.918 88.2159C347.804 87.1932 343.997 85.4205 341.497 82.8977C339.02 80.375 337.781 77.1591 337.781 73.25C337.781 69.8864 338.69 66.9886 340.509 64.5568C342.349 62.125 344.929 60.25 348.247 58.9318C351.588 57.6136 355.497 56.9545 359.974 56.9545C366.588 56.9545 371.793 58.3523 375.588 61.1477C379.406 63.9432 381.634 67.75 382.27 72.5682ZM416.472 111.023C411.085 111.023 406.449 109.932 402.562 107.75C398.699 105.545 395.722 102.432 393.631 98.4091C391.54 94.3636 390.494 89.5795 390.494 84.0568C390.494 78.6705 391.54 73.9432 393.631 69.875C395.722 65.8068 398.665 62.6364 402.46 60.3636C406.278 58.0909 410.756 56.9545 415.892 56.9545C419.347 56.9545 422.563 57.5114 425.54 58.625C428.54 59.7159 431.153 61.3636 433.381 63.5682C435.631 65.7727 437.381 68.5455 438.631 71.8864C439.881 75.2045 440.506 79.0909 440.506 83.5455V87.5341H396.29V78.5341H426.835C426.835 76.4432 426.381 74.5909 425.472 72.9773C424.563 71.3636 423.301 70.1023 421.688 69.1932C420.097 68.2614 418.244 67.7955 416.131 67.7955C413.926 67.7955 411.972 68.3068 410.267 69.3295C408.585 70.3295 407.267 71.6818 406.312 73.3864C405.358 75.0682 404.869 76.9432 404.847 79.0114V87.5682C404.847 90.1591 405.324 92.3977 406.278 94.2841C407.256 96.1705 408.631 97.625 410.403 98.6477C412.176 99.6705 414.278 100.182 416.71 100.182C418.324 100.182 419.801 99.9545 421.142 99.5C422.483 99.0455 423.631 98.3636 424.585 97.4545C425.54 96.5455 426.267 95.4318 426.767 94.1136L440.199 95C439.517 98.2273 438.119 101.045 436.006 103.455C433.915 105.841 431.21 107.705 427.892 109.045C424.597 110.364 420.79 111.023 416.472 111.023ZM449.983 110V57.6364H464.062V66.7727H464.608C465.563 63.5227 467.165 61.0682 469.415 59.4091C471.665 57.7273 474.256 56.8864 477.188 56.8864C477.915 56.8864 478.699 56.9318 479.54 57.0227C480.381 57.1136 481.119 57.2386 481.756 57.3977V70.2841C481.074 70.0795 480.131 69.8977 478.926 69.7386C477.722 69.5795 476.619 69.5 475.619 69.5C473.483 69.5 471.574 69.9659 469.892 70.8977C468.233 71.8068 466.915 73.0795 465.938 74.7159C464.983 76.3523 464.506 78.2386 464.506 80.375V110H449.983ZM539.676 57.6364L521.369 110H505.006L486.699 57.6364H502.04L512.915 95.1023H513.46L524.301 57.6364H539.676Z" shape-rendering="geometricPrecision"/>
</svg>
