<svg xmlns="http://www.w3.org/2000/svg">
  <defs>
    <symbol viewbox="0 0 48 37" id="logo">
      <path fill="#d5b4fb" d="M48 20.993l-3.994 3.994-8.036 8.012-3.994 3.994-7.988-7.988L16 36.993l-16-16 3.994-3.994L16 29.005l3.994-4.018L8.012 13.005l3.994-3.994 11.982 11.982L35.97 9.01l4.018 3.994-12.006 11.982 3.994 4.018 12.03-12.006L48 20.993zm-24.012-7.679c3.661 0 6.657-2.972 6.657-6.657S27.673 0 23.988 0s-6.657 2.972-6.657 6.657 2.972 6.657 6.657 6.657zm0-9.747c1.736 0 3.091 1.403 3.091 3.091a3.12 3.12 0 0 1-3.091 3.091 3.12 3.12 0 0 1-3.091-3.091 3.12 3.12 0 0 1 3.091-3.091z"/>
    </symbol>
  </defs>
</svg>